<svg width="51" height="41" viewBox="0 0 51 41" fill="none" xmlns="http://www.w3.org/2000/svg">
<path d="M10 30.5C8 28.9 8.83334 26.1667 9.5 25L15.5 12.5C15.6667 12.1667 16.2 11.5 17 11.5H18C18.4 11.5 19.1667 12.5 19.5 13L30 34C31 36 33 37.5 35.5 39C37.5 40.2 40.6667 39.8333 42 39.5C43 39.3333 45.4 38.5 47 36.5C49 34 49 33.5 50 30.5C50.8 28.1 50.3333 24.8333 50 23.5L41 5.5C40.6667 4.66667 39.7 2.8 38.5 2C37 1 34 0 31 1C28.6 1.8 28 3.66667 28 4.5L32 13L33.5 11.5C34.3 10.7 35.5 11.8333 36 12.5L43 26C43.3333 27.1667 43.4 29.8 41 31C38.6 32.2 37 30.5 36.5 29.5C33 22.6667 25.7 8.4 24.5 6C23 3 20.5 0.5 17 0.5C14.2 0.5 12.1667 2.5 11.5 3.5C8.33333 10 2 23.1 2 23.5C2 24 3.57628e-07 29.5 3 34C5.4 37.6 8.66667 39.1667 10 39.5C11.3333 40 14.8 40.4 18 38C21.2 35.6 23.3333 31.6667 24 30L19.5 21.5C18.3333 23.6667 15.9 28.2 15.5 29C15 30 12.5 32.5 10 30.5Z" fill="white" stroke="white"/>
<path d="M16.8232 1.02795C16.2395 0.932605 14.722 1.02795 13.3212 2.17209C12.3873 3.31623 13.7103 3.0302 14.4885 2.74416C14.4885 2.64882 14.722 2.34371 15.6558 1.88606C16.5897 1.4284 18.3796 1.69537 19.1578 1.88606C19.936 2.45813 21.3757 3.31623 20.9088 2.17209C20.4419 1.02795 17.9905 0.932604 16.8232 1.02795Z" fill="black" stroke="black" stroke-width="0.1"/>
<path d="M39.1708 38.2214C39.7477 38.3519 41.2682 38.3487 42.7357 37.2915C43.7371 36.206 42.3993 36.4114 41.6052 36.6497C41.5994 36.7449 41.3479 37.0353 40.388 37.4356C39.4281 37.8358 37.6577 37.4609 36.8924 37.2235C36.1503 36.6053 34.7652 35.6616 35.162 36.8319C35.5588 38.0022 37.9999 38.2459 39.1708 38.2214Z" fill="black" stroke="black" stroke-width="0.1"/>
</svg>
